<svg viewBox="0 0 338 433" fill="none" xmlns="http://www.w3.org/2000/svg">
<path d="M51.9969 97.1058C73.4982 79.2645 90.2817 72.9506 118.011 69.5248C157.681 64.6236 186.076 71.2732 216.579 97.1058C255.228 129.838 255.815 169.898 256.368 220.542C256.869 266.412 248.841 294.208 226.074 334.031C216.905 350.069 211.017 358.883 198.493 372.464C164.596 409.222 85.4558 432.6 85.4558 432.6C65.6897 429.763 51.2702 428.513 37.9803 413.61C26.6442 400.897 28.5858 388.724 23.5115 372.464C11.6552 334.473 -3.52766 312.489 1.35627 272.991C3.68089 254.192 13.8406 245.332 14.9207 226.42C15.9189 208.943 7.34703 199.598 8.13849 182.11C9.82731 144.794 23.2503 120.959 51.9969 97.1058Z" fill="#F0D0C0"/>
<circle cx="50.1885" cy="202.909" r="48.6885" stroke="#ADA6A6" strokeWidth="3"/>
<circle cx="168.651" cy="218.282" r="48.6885" stroke="#ADA6A6" strokeWidth="3"/>
<path d="M99.9252 209.691C108.064 207.882 110.777 205.169 119.82 213.76" stroke="#ADA6A6" strokeWidth="3"/>
<path d="M42.5008 89.8706C11.3031 121.973 9.9469 159.05 9.9469 159.05C9.9469 159.05 18.9175 144.128 36.1714 125.138C36.1714 125.138 45.1619 112.023 54.2572 102.078C71.5782 83.1409 93.818 74.7773 119.367 77.2104C140.924 79.2636 149.217 77.0026 160.059 95.7485C171.64 115.772 146.494 134.633 160.059 154.98C173.624 175.327 203.013 173.518 210.248 216.924C217.482 260.33 165.938 256.713 165.033 271.634C164.128 286.555 160.681 290.125 168.651 293.338C170.804 294.206 171.011 293.338 174.529 294.23C182.839 296.338 197.613 303.424 203.013 327.248C209.894 357.606 259.393 348.643 287.113 334.484C318.489 318.457 300.992 277.89 325.093 252.192C331.675 245.174 318.923 224.306 325.093 216.924C352.008 184.725 330.52 168.092 317.407 140.512C299.96 120.063 286.034 96.9572 268.575 77.2104C255.013 61.8714 270.905 45.2407 250.037 31.5444C238.835 24.1921 222.249 29.4007 206.179 22.5014C192.857 16.7819 185.49 6.18396 174.981 2.38084C152.291 -5.82989 150.553 10.4916 115.749 2.38042C80.9453 -5.73079 47.9271 16.1704 47.9271 16.1704C47.9271 16.1704 29.8414 43.7515 28.0327 60.481C26.2239 77.2104 42.5008 89.8706 42.5008 89.8706Z" fill="#4F373C"/>
</svg>
