<svg viewBox="0 0 344 396" fill="none" xmlns="http://www.w3.org/2000/svg">
<g filter="url(#filter0_d)">
<circle cx="172" cy="167" r="167" fill="#A40765"/>
</g>
<g filter="url(#filter1_dd)">
<rect x="73" y="86" width="194" height="306" rx="18" fill="white"/>
</g>
<rect x="85" y="209" width="78" height="104" rx="8" fill="#E4E4E4"/>
<rect x="174" y="260" width="78" height="53" rx="8" fill="#F47094"/>
<path d="M153.326 125.803C153.326 125.428 153.193 125.139 152.928 124.936C152.666 124.732 152.191 124.527 151.504 124.32C150.816 124.113 150.27 123.883 149.863 123.629C149.086 123.141 148.697 122.504 148.697 121.719C148.697 121.031 148.977 120.465 149.535 120.02C150.098 119.574 150.826 119.352 151.721 119.352C152.314 119.352 152.844 119.461 153.309 119.68C153.773 119.898 154.139 120.211 154.404 120.617C154.67 121.02 154.803 121.467 154.803 121.959H153.326C153.326 121.514 153.186 121.166 152.904 120.916C152.627 120.662 152.229 120.535 151.709 120.535C151.225 120.535 150.848 120.639 150.578 120.846C150.312 121.053 150.18 121.342 150.18 121.713C150.18 122.025 150.324 122.287 150.613 122.498C150.902 122.705 151.379 122.908 152.043 123.107C152.707 123.303 153.24 123.527 153.643 123.781C154.045 124.031 154.34 124.32 154.527 124.648C154.715 124.973 154.809 125.354 154.809 125.791C154.809 126.502 154.535 127.068 153.988 127.49C153.445 127.908 152.707 128.117 151.773 128.117C151.156 128.117 150.588 128.004 150.068 127.777C149.553 127.547 149.15 127.23 148.861 126.828C148.576 126.426 148.434 125.957 148.434 125.422H149.916C149.916 125.906 150.076 126.281 150.396 126.547C150.717 126.812 151.176 126.945 151.773 126.945C152.289 126.945 152.676 126.842 152.934 126.635C153.195 126.424 153.326 126.146 153.326 125.803ZM158.764 128.117C157.861 128.117 157.129 127.834 156.566 127.268C156.008 126.697 155.729 125.939 155.729 124.994V124.818C155.729 124.186 155.85 123.621 156.092 123.125C156.338 122.625 156.682 122.236 157.123 121.959C157.564 121.682 158.057 121.543 158.6 121.543C159.463 121.543 160.129 121.818 160.598 122.369C161.07 122.92 161.307 123.699 161.307 124.707V125.281H157.164C157.207 125.805 157.381 126.219 157.686 126.523C157.994 126.828 158.381 126.98 158.846 126.98C159.498 126.98 160.029 126.717 160.439 126.189L161.207 126.922C160.953 127.301 160.613 127.596 160.188 127.807C159.766 128.014 159.291 128.117 158.764 128.117ZM158.594 122.686C158.203 122.686 157.887 122.822 157.645 123.096C157.406 123.369 157.254 123.75 157.188 124.238H159.9V124.133C159.869 123.656 159.742 123.297 159.52 123.055C159.297 122.809 158.988 122.686 158.594 122.686ZM166.258 127.379C165.84 127.871 165.246 128.117 164.477 128.117C163.789 128.117 163.268 127.916 162.912 127.514C162.561 127.111 162.385 126.529 162.385 125.768V121.66H163.809V125.75C163.809 126.555 164.143 126.957 164.811 126.957C165.502 126.957 165.969 126.709 166.211 126.213V121.66H167.635V128H166.293L166.258 127.379ZM175.627 126.277C175.627 126.023 175.521 125.83 175.311 125.697C175.104 125.564 174.758 125.447 174.273 125.346C173.789 125.244 173.385 125.115 173.061 124.959C172.35 124.615 171.994 124.117 171.994 123.465C171.994 122.918 172.225 122.461 172.686 122.094C173.146 121.727 173.732 121.543 174.443 121.543C175.201 121.543 175.812 121.73 176.277 122.105C176.746 122.48 176.98 122.967 176.98 123.564H175.557C175.557 123.291 175.455 123.064 175.252 122.885C175.049 122.701 174.779 122.609 174.443 122.609C174.131 122.609 173.875 122.682 173.676 122.826C173.48 122.971 173.383 123.164 173.383 123.406C173.383 123.625 173.475 123.795 173.658 123.916C173.842 124.037 174.213 124.16 174.771 124.285C175.33 124.406 175.768 124.553 176.084 124.725C176.404 124.893 176.641 125.096 176.793 125.334C176.949 125.572 177.027 125.861 177.027 126.201C177.027 126.771 176.791 127.234 176.318 127.59C175.846 127.941 175.227 128.117 174.461 128.117C173.941 128.117 173.479 128.023 173.072 127.836C172.666 127.648 172.35 127.391 172.123 127.062C171.896 126.734 171.783 126.381 171.783 126.002H173.166C173.186 126.338 173.312 126.598 173.547 126.781C173.781 126.961 174.092 127.051 174.479 127.051C174.854 127.051 175.139 126.98 175.334 126.84C175.529 126.695 175.627 126.508 175.627 126.277ZM179.787 128H178.363V121.66H179.787V128ZM178.275 120.014C178.275 119.795 178.344 119.613 178.48 119.469C178.621 119.324 178.82 119.252 179.078 119.252C179.336 119.252 179.535 119.324 179.676 119.469C179.816 119.613 179.887 119.795 179.887 120.014C179.887 120.229 179.816 120.408 179.676 120.553C179.535 120.693 179.336 120.764 179.078 120.764C178.82 120.764 178.621 120.693 178.48 120.553C178.344 120.408 178.275 120.229 178.275 120.014ZM183.127 120.119V121.66H184.246V122.715H183.127V126.254C183.127 126.496 183.174 126.672 183.268 126.781C183.365 126.887 183.537 126.939 183.783 126.939C183.947 126.939 184.113 126.92 184.281 126.881V127.982C183.957 128.072 183.645 128.117 183.344 128.117C182.25 128.117 181.703 127.514 181.703 126.307V122.715H180.66V121.66H181.703V120.119H183.127ZM188.131 128.117C187.229 128.117 186.496 127.834 185.934 127.268C185.375 126.697 185.096 125.939 185.096 124.994V124.818C185.096 124.186 185.217 123.621 185.459 123.125C185.705 122.625 186.049 122.236 186.49 121.959C186.932 121.682 187.424 121.543 187.967 121.543C188.83 121.543 189.496 121.818 189.965 122.369C190.438 122.92 190.674 123.699 190.674 124.707V125.281H186.531C186.574 125.805 186.748 126.219 187.053 126.523C187.361 126.828 187.748 126.98 188.213 126.98C188.865 126.98 189.396 126.717 189.807 126.189L190.574 126.922C190.32 127.301 189.98 127.596 189.555 127.807C189.133 128.014 188.658 128.117 188.131 128.117ZM187.961 122.686C187.57 122.686 187.254 122.822 187.012 123.096C186.773 123.369 186.621 123.75 186.555 124.238H189.268V124.133C189.236 123.656 189.109 123.297 188.887 123.055C188.664 122.809 188.355 122.686 187.961 122.686Z" fill="#3E4751"/>
<line x1="126" y1="157" x2="213" y2="157" stroke="#B8B8B8" strokeWidth="2"/>
<line x1="126" y1="163" x2="213" y2="163" stroke="#B8B8B8" strokeWidth="2"/>
<line x1="126" y1="169" x2="213" y2="169" stroke="#B8B8B8" strokeWidth="2"/>
<line x1="126" y1="181" x2="213" y2="181" stroke="#B8B8B8" strokeWidth="2"/>
<line x1="126" y1="175" x2="213" y2="175" stroke="#B8B8B8" strokeWidth="2"/>
<line x1="180" y1="214" x2="246" y2="214" stroke="#C4C4C4" strokeWidth="2"/>
<line x1="180" y1="220" x2="246" y2="220" stroke="#C4C4C4" strokeWidth="2"/>
<line x1="180" y1="226" x2="246" y2="226" stroke="#C4C4C4" strokeWidth="2"/>
<line x1="180" y1="238" x2="246" y2="238" stroke="#C4C4C4" strokeWidth="2"/>
<line x1="180" y1="232" x2="246" y2="232" stroke="#C4C4C4" strokeWidth="2"/>
<defs>
<filter id="filter0_d" x="0" y="0" width="344" height="344" filterUnits="userSpaceOnUse" color-interpolation-filters="sRGB">
<feFlood flood-opacity="0" result="BackgroundImageFix"/>
<feColorMatrix in="SourceAlpha" type="matrix" values="0 0 0 0 0 0 0 0 0 0 0 0 0 0 0 0 0 0 127 0" result="hardAlpha"/>
<feOffset dy="5"/>
<feGaussianBlur stdDeviation="2.5"/>
<feColorMatrix type="matrix" values="0 0 0 0 0 0 0 0 0 0 0 0 0 0 0 0 0 0 0.3 0"/>
<feBlend mode="normal" in2="BackgroundImageFix" result="effect1_dropShadow"/>
<feBlend mode="normal" in="SourceGraphic" in2="effect1_dropShadow" result="shape"/>
</filter>
<filter id="filter1_dd" x="67" y="80" width="206" height="316" filterUnits="userSpaceOnUse" color-interpolation-filters="sRGB">
<feFlood flood-opacity="0" result="BackgroundImageFix"/>
<feColorMatrix in="SourceAlpha" type="matrix" values="0 0 0 0 0 0 0 0 0 0 0 0 0 0 0 0 0 0 127 0" result="hardAlpha"/>
<feOffset dx="-2" dy="-2"/>
<feGaussianBlur stdDeviation="2"/>
<feColorMatrix type="matrix" values="0 0 0 0 0.243137 0 0 0 0 0.278431 0 0 0 0 0.317647 0 0 0 0.4 0"/>
<feBlend mode="darken" in2="BackgroundImageFix" result="effect1_dropShadow"/>
<feColorMatrix in="SourceAlpha" type="matrix" values="0 0 0 0 0 0 0 0 0 0 0 0 0 0 0 0 0 0 127 0" result="hardAlpha"/>
<feOffset dx="2"/>
<feGaussianBlur stdDeviation="2"/>
<feColorMatrix type="matrix" values="0 0 0 0 0.243137 0 0 0 0 0.278431 0 0 0 0 0.317647 0 0 0 0.4 0"/>
<feBlend mode="darken" in2="effect1_dropShadow" result="effect2_dropShadow"/>
<feBlend mode="normal" in="SourceGraphic" in2="effect2_dropShadow" result="shape"/>
</filter>
</defs>
</svg>
